<mxfile host="65bd71144e">
    <diagram id="yFso63pQ9dl__UIvBj5B" name="PÃ¡gina-1">
        <mxGraphModel dx="1063" dy="950" grid="1" gridSize="10" guides="1" tooltips="1" connect="1" arrows="1" fold="1" page="1" pageScale="1" pageWidth="827" pageHeight="1169" math="0" shadow="0">
            <root>
                <mxCell id="0"/>
                <mxCell id="1" parent="0"/>
                <mxCell id="2" value="" style="verticalLabelPosition=bottom;verticalAlign=top;html=1;shadow=0;dashed=0;strokeWidth=1;shape=mxgraph.android.phone2;strokeColor=#c0c0c0;" vertex="1" parent="1">
                    <mxGeometry x="40" y="160" width="200" height="390" as="geometry"/>
                </mxCell>
                <mxCell id="22" value="" style="endArrow=classic;dashed=1;html=1;fontSize=17;strokeWidth=5;startArrow=classicThin;startFill=1;endFill=1;strokeColor=#49d3f4;entryX=0.003;entryY=0.421;entryDx=0;entryDy=0;entryPerimeter=0;exitX=0.965;exitY=0.517;exitDx=0;exitDy=0;exitPerimeter=0;" edge="1" parent="1" source="2" target="3">
                    <mxGeometry width="50" height="50" relative="1" as="geometry">
                        <mxPoint x="250" y="360" as="sourcePoint"/>
                        <mxPoint x="380" y="360" as="targetPoint"/>
                    </mxGeometry>
                </mxCell>
                <mxCell id="30" value="" style="group" vertex="1" connectable="0" parent="1">
                    <mxGeometry x="414" y="210" width="482" height="300" as="geometry"/>
                </mxCell>
                <mxCell id="13" value="" style="group" vertex="1" connectable="0" parent="30">
                    <mxGeometry x="232" y="40" width="240" height="224" as="geometry"/>
                </mxCell>
                <mxCell id="10" value="" style="group" vertex="1" connectable="0" parent="13">
                    <mxGeometry y="160" width="190" height="64" as="geometry"/>
                </mxCell>
                <mxCell id="8" value="" style="aspect=fixed;html=1;points=[];align=center;image;fontSize=12;image=img/lib/azure2/app_services/App_Service_Environments.svg;" vertex="1" parent="10">
                    <mxGeometry width="64" height="64" as="geometry"/>
                </mxCell>
                <mxCell id="9" value="AccountAPI" style="text;html=1;align=left;verticalAlign=middle;resizable=0;points=[];autosize=1;strokeColor=none;fillColor=none;fontSize=17;fontStyle=1" vertex="1" parent="10">
                    <mxGeometry x="70" y="17" width="120" height="30" as="geometry"/>
                </mxCell>
                <mxCell id="11" value="" style="group" vertex="1" connectable="0" parent="13">
                    <mxGeometry y="80" width="160" height="64" as="geometry"/>
                </mxCell>
                <mxCell id="5" value="" style="aspect=fixed;html=1;points=[];align=center;image;fontSize=12;image=img/lib/azure2/app_services/App_Service_Environments.svg;" vertex="1" parent="11">
                    <mxGeometry width="64" height="64" as="geometry"/>
                </mxCell>
                <mxCell id="7" value="UserAPI" style="text;html=1;align=left;verticalAlign=middle;resizable=0;points=[];autosize=1;strokeColor=none;fillColor=none;fontSize=17;fontStyle=1" vertex="1" parent="11">
                    <mxGeometry x="70" y="17" width="90" height="30" as="geometry"/>
                </mxCell>
                <mxCell id="12" value="" style="group" vertex="1" connectable="0" parent="13">
                    <mxGeometry width="240" height="64" as="geometry"/>
                </mxCell>
                <mxCell id="4" value="" style="aspect=fixed;html=1;points=[];align=center;image;fontSize=12;image=img/lib/azure2/app_services/App_Service_Environments.svg;" vertex="1" parent="12">
                    <mxGeometry width="64" height="64" as="geometry"/>
                </mxCell>
                <mxCell id="6" value="AuthenticationAPI" style="text;html=1;align=left;verticalAlign=middle;resizable=0;points=[];autosize=1;strokeColor=none;fillColor=none;fontSize=17;fontStyle=1" vertex="1" parent="12">
                    <mxGeometry x="70" y="17" width="170" height="30" as="geometry"/>
                </mxCell>
                <mxCell id="29" value="" style="group" vertex="1" connectable="0" parent="30">
                    <mxGeometry width="482" height="300" as="geometry"/>
                </mxCell>
                <mxCell id="3" value="" style="aspect=fixed;html=1;points=[];align=center;image;fontSize=12;image=img/lib/azure2/app_services/API_Management_Services.svg;" vertex="1" parent="29">
                    <mxGeometry y="70" width="205.83" height="190" as="geometry"/>
                </mxCell>
                <mxCell id="24" value="" style="endArrow=none;dashed=1;html=1;strokeColor=#49d3f4;strokeWidth=3;fontSize=17;exitX=0.5;exitY=-0.011;exitDx=0;exitDy=0;exitPerimeter=0;" edge="1" parent="29" source="3">
                    <mxGeometry width="50" height="50" relative="1" as="geometry">
                        <mxPoint x="92" y="60" as="sourcePoint"/>
                        <mxPoint x="102" as="targetPoint"/>
                    </mxGeometry>
                </mxCell>
                <mxCell id="25" value="" style="endArrow=none;dashed=1;html=1;strokeColor=#49d3f4;strokeWidth=3;fontSize=17;entryX=0.505;entryY=1.016;entryDx=0;entryDy=0;entryPerimeter=0;" edge="1" parent="29" target="3">
                    <mxGeometry width="50" height="50" relative="1" as="geometry">
                        <mxPoint x="104" y="300" as="sourcePoint"/>
                        <mxPoint x="97" y="10" as="targetPoint"/>
                    </mxGeometry>
                </mxCell>
                <mxCell id="26" value="" style="endArrow=none;dashed=1;html=1;strokeColor=#49d3f4;strokeWidth=3;fontSize=17;" edge="1" parent="29">
                    <mxGeometry width="50" height="50" relative="1" as="geometry">
                        <mxPoint x="102" y="300" as="sourcePoint"/>
                        <mxPoint x="482" y="300" as="targetPoint"/>
                    </mxGeometry>
                </mxCell>
                <mxCell id="27" value="" style="endArrow=none;dashed=1;html=1;strokeColor=#49d3f4;strokeWidth=3;fontSize=17;" edge="1" parent="29">
                    <mxGeometry width="50" height="50" relative="1" as="geometry">
                        <mxPoint x="102" y="6" as="sourcePoint"/>
                        <mxPoint x="482" y="6" as="targetPoint"/>
                    </mxGeometry>
                </mxCell>
                <mxCell id="28" value="" style="endArrow=none;dashed=1;html=1;strokeColor=#49d3f4;strokeWidth=3;fontSize=17;" edge="1" parent="29">
                    <mxGeometry width="50" height="50" relative="1" as="geometry">
                        <mxPoint x="481" y="300" as="sourcePoint"/>
                        <mxPoint x="481" y="4" as="targetPoint"/>
                    </mxGeometry>
                </mxCell>
                <mxCell id="36" value="" style="group" vertex="1" connectable="0" parent="1">
                    <mxGeometry x="1070" y="250" width="540" height="231" as="geometry"/>
                </mxCell>
                <mxCell id="23" value="" style="group" vertex="1" connectable="0" parent="36">
                    <mxGeometry y="18" width="540" height="190" as="geometry"/>
                </mxCell>
                <mxCell id="14" value="" style="verticalLabelPosition=bottom;html=1;verticalAlign=top;align=center;strokeColor=none;fillColor=#00BEF2;shape=mxgraph.azure.storage;pointerEvents=1;fontSize=17;" vertex="1" parent="23">
                    <mxGeometry width="210" height="190" as="geometry"/>
                </mxCell>
                <mxCell id="15" value="" style="verticalLabelPosition=bottom;html=1;verticalAlign=top;align=center;strokeColor=none;fillColor=#00BEF2;shape=mxgraph.azure.storage_table;fontSize=17;" vertex="1" parent="23">
                    <mxGeometry x="230" width="50" height="45" as="geometry"/>
                </mxCell>
                <mxCell id="17" value="AuthenticationTableStorage" style="text;html=1;align=left;verticalAlign=middle;resizable=0;points=[];autosize=1;strokeColor=none;fillColor=none;fontSize=17;fontStyle=1" vertex="1" parent="23">
                    <mxGeometry x="290" y="7.5" width="250" height="30" as="geometry"/>
                </mxCell>
                <mxCell id="18" value="" style="verticalLabelPosition=bottom;html=1;verticalAlign=top;align=center;strokeColor=none;fillColor=#00BEF2;shape=mxgraph.azure.storage_table;fontSize=17;" vertex="1" parent="23">
                    <mxGeometry x="230" y="72.5" width="50" height="45" as="geometry"/>
                </mxCell>
                <mxCell id="19" value="UserTableStorage" style="text;html=1;align=left;verticalAlign=middle;resizable=0;points=[];autosize=1;strokeColor=none;fillColor=none;fontSize=17;fontStyle=1" vertex="1" parent="23">
                    <mxGeometry x="290" y="80" width="170" height="30" as="geometry"/>
                </mxCell>
                <mxCell id="20" value="" style="verticalLabelPosition=bottom;html=1;verticalAlign=top;align=center;strokeColor=none;fillColor=#00BEF2;shape=mxgraph.azure.storage_table;fontSize=17;" vertex="1" parent="23">
                    <mxGeometry x="230" y="145" width="50" height="45" as="geometry"/>
                </mxCell>
                <mxCell id="21" value="AccountTableStorage" style="text;html=1;align=left;verticalAlign=middle;resizable=0;points=[];autosize=1;strokeColor=none;fillColor=none;fontSize=17;fontStyle=1" vertex="1" parent="23">
                    <mxGeometry x="290" y="152.5" width="200" height="30" as="geometry"/>
                </mxCell>
                <mxCell id="31" value="" style="endArrow=none;dashed=1;html=1;strokeColor=#49d3f4;strokeWidth=3;fontSize=17;entryX=0.5;entryY=0;entryDx=0;entryDy=0;entryPerimeter=0;" edge="1" parent="36" target="14">
                    <mxGeometry width="50" height="50" relative="1" as="geometry">
                        <mxPoint x="105" y="1" as="sourcePoint"/>
                        <mxPoint x="-510" y="-39" as="targetPoint"/>
                    </mxGeometry>
                </mxCell>
                <mxCell id="32" value="" style="endArrow=none;dashed=1;html=1;strokeColor=#49d3f4;strokeWidth=3;fontSize=17;entryX=0.5;entryY=1;entryDx=0;entryDy=0;entryPerimeter=0;" edge="1" parent="36" target="14">
                    <mxGeometry width="50" height="50" relative="1" as="geometry">
                        <mxPoint x="105" y="231" as="sourcePoint"/>
                        <mxPoint x="-500" y="-29" as="targetPoint"/>
                    </mxGeometry>
                </mxCell>
                <mxCell id="33" value="" style="endArrow=none;dashed=1;html=1;strokeColor=#49d3f4;strokeWidth=3;fontSize=17;" edge="1" parent="36">
                    <mxGeometry width="50" height="50" relative="1" as="geometry">
                        <mxPoint x="105" as="sourcePoint"/>
                        <mxPoint x="535" as="targetPoint"/>
                    </mxGeometry>
                </mxCell>
                <mxCell id="34" value="" style="endArrow=none;dashed=1;html=1;strokeColor=#49d3f4;strokeWidth=3;fontSize=17;" edge="1" parent="36">
                    <mxGeometry width="50" height="50" relative="1" as="geometry">
                        <mxPoint x="105" y="231" as="sourcePoint"/>
                        <mxPoint x="535" y="231" as="targetPoint"/>
                    </mxGeometry>
                </mxCell>
                <mxCell id="35" value="" style="endArrow=none;dashed=1;html=1;strokeColor=#49d3f4;strokeWidth=3;fontSize=17;" edge="1" parent="36">
                    <mxGeometry width="50" height="50" relative="1" as="geometry">
                        <mxPoint x="527" y="230" as="sourcePoint"/>
                        <mxPoint x="527" as="targetPoint"/>
                    </mxGeometry>
                </mxCell>
                <mxCell id="37" value="" style="endArrow=classic;dashed=1;html=1;fontSize=17;strokeWidth=5;startArrow=classicThin;startFill=1;endFill=1;strokeColor=#49d3f4;entryX=0;entryY=0.5;entryDx=0;entryDy=0;entryPerimeter=0;" edge="1" parent="1" target="14">
                    <mxGeometry width="50" height="50" relative="1" as="geometry">
                        <mxPoint x="900" y="363" as="sourcePoint"/>
                        <mxPoint x="1050" y="359.5" as="targetPoint"/>
                    </mxGeometry>
                </mxCell>
                <mxCell id="38" value="" style="rounded=0;whiteSpace=wrap;html=1;fontSize=17;fillColor=none;strokeWidth=2;strokeColor=#44bef2;dashed=1;" vertex="1" parent="1">
                    <mxGeometry x="370" y="80" width="1280" height="460" as="geometry"/>
                </mxCell>
            </root>
        </mxGraphModel>
    </diagram>
</mxfile>